<svg xmlns="http://www.w3.org/2000/svg" viewBox="0 0 64 64" width="64" height="64">
    <!-- Background circle -->
    <circle cx="32" cy="32" r="30" fill="#f0f0f0" stroke="#666" stroke-width="1" />

    <!-- Robot link (cylindrical/rectangular shape representing a URDF link) -->
    <g>
        <!-- Main link body -->
        <rect x="18" y="26" width="28" height="12" rx="2" fill="#64B5F6" stroke="#1976D2"
            stroke-width="2" />

        <!-- Joint connection points (circles at each end) -->
        <circle cx="20" cy="32" r="5" fill="#90CAF9" stroke="#1976D2" stroke-width="2" />
        <circle cx="44" cy="32" r="5" fill="#90CAF9" stroke="#1976D2" stroke-width="2" />

        <!-- Center circles to show attachment points -->
        <circle cx="20" cy="32" r="2" fill="#1976D2" />
        <circle cx="44" cy="32" r="2" fill="#1976D2" />

        <!-- Decorative lines to show it's mechanical -->
        <line x1="26" y1="29" x2="26" y2="35" stroke="#1976D2" stroke-width="1" opacity="0.5" />
        <line x1="32" y1="29" x2="32" y2="35" stroke="#1976D2" stroke-width="1" opacity="0.5" />
        <line x1="38" y1="29" x2="38" y2="35" stroke="#1976D2" stroke-width="1" opacity="0.5" />
    </g>

    <!-- Plus sign for "create" action -->
    <g transform="translate(42, 12)">
        <circle cx="0" cy="0" r="9" fill="#4CAF50" stroke="#2E7D32" stroke-width="2" />
        <line x1="0" y1="-5" x2="0" y2="5" stroke="white" stroke-width="2.5" stroke-linecap="round" />
        <line x1="-5" y1="0" x2="5" y2="0" stroke="white" stroke-width="2.5" stroke-linecap="round" />
    </g>

    <!-- Small coordinate frame indicator (optional, showing this link has a frame) -->
    <g transform="translate(32, 48)" opacity="0.6">
        <line x1="0" y1="0" x2="6" y2="0" stroke="#F44336" stroke-width="1.5" />
        <line x1="0" y1="0" x2="0" y2="-6" stroke="#2196F3" stroke-width="1.5" />
        <line x1="0" y1="0" x2="-4" y2="2" stroke="#4CAF50" stroke-width="1.5" />
    </g>
</svg>
