<svg width="64" height="64" viewBox="0 0 64 64" fill="none" xmlns="http://www.w3.org/2000/svg">
    <!-- Background subtle gradient -->
    <rect width="64" height="64" rx="12" fill="#1E293B" />

    <!-- ROS logo inspired node circle -->
    <circle cx="32" cy="32" r="18" fill="#1E88E5" />
    <circle cx="32" cy="32" r="11" fill="#0D47A1" />

    <!-- Small connecting dots (classic ROS graph feeling) -->
    <circle cx="20" cy="20" r="3" fill="#42A5F5" />
    <circle cx="44" cy="20" r="3" fill="#42A5F5" />
    <circle cx="20" cy="44" r="3" fill="#42A5F5" />
    <circle cx="44" cy="44" r="3" fill="#42A5F5" />

    <!-- Package / Folder symbol -->
    <path
        d="M22 26H42C43.1 26 44 26.9 44 28V40C44 41.1 43.1 42 42 42H22C20.9 42 20 41.1 20 40V28C20 26.9 20.9 26 22 26Z"
        stroke="#FFFFFF" stroke-width="3.5" stroke-linecap="round" stroke-linejoin="round" />
    <path d="M26 26V22C26 20.9 26.9 20 28 20H36C37.1 20 38 20.9 38 22V26"
        stroke="#FFFFFF" stroke-width="3.5" stroke-linecap="round" stroke-linejoin="round" />

    <!-- Small + plus sign for "create" action -->
    <path d="M32 36V30M29 33H35"
        stroke="#4CAF50" stroke-width="4" stroke-linecap="round" stroke-linejoin="round" />
</svg>
